<?xml version="1.0" encoding="UTF-8" standalone="no"?><!DOCTYPE svg PUBLIC "-//W3C//DTD SVG 1.1//EN" "http://www.w3.org/Graphics/SVG/1.1/DTD/svg11.dtd"><svg width="100%" height="100%" viewBox="0 0 372 372" version="1.1" xmlns="http://www.w3.org/2000/svg" xmlns:xlink="http://www.w3.org/1999/xlink" xml:space="preserve" xmlns:serif="http://www.serif.com/" style="fill-rule:evenodd;clip-rule:evenodd;stroke-linejoin:round;stroke-miterlimit:2;"><g><path d="M246.48,360.884c-19.09,6.64 -39.58,10.24 -60.91,10.24c-55.92,0 -106.1,-24.79 -140.13,-63.97l116.51,-34.919l84.53,88.649Zm124.6,-179.776c0.03,1.481 0.05,2.966 0.05,4.456c0,76.476 -46.36,142.21 -112.49,170.6l2.81,-122.445l109.63,-52.611Zm-276.51,8.397l-57.75,106.967c-23.12,-30.948 -36.82,-69.341 -36.82,-110.908c0,-34.687 9.54,-67.163 26.14,-94.948l68.43,98.889Zm145.02,-181.506c70.52,21.455 123.3,83.807 130.66,159.382l-114.68,-40.195l-15.98,-119.187Zm-205.38,70.242c33.64,-47.335 88.92,-78.241 151.36,-78.241c13.63,0 26.92,1.474 39.72,4.27l-72.86,95.59l-118.22,-21.619Z" style="fill:#90e4e4;"/><g><path d="M63.555,124.902c-1.855,5.904 -0.657,10.45 2.211,14.595c1.623,2.209 2.888,2.606 5.317,0.28c13.02,-12.436 32.617,-27.129 49.979,-39.128c-11.305,11.893 -22.83,24.49 -26.593,30.567l0.044,-0.141c-1.815,2.828 -2.935,5.411 -3.642,7.66c-1.28,4.077 -0.485,6.952 0.716,9.028c1.631,2.675 2.896,3.072 4.764,0.57c13.071,-17.516 35.732,-40.978 51.129,-56.065c3.02,-3.221 5.802,-6.672 6.995,-10.467c1.06,-3.374 0.855,-7.145 -1.03,-10.981c-1.876,-3.369 -3.747,-3.803 -6.502,-1.425c-23.377,19.839 -42.746,28.89 -64.528,46.605c10.978,-17.248 16.484,-24.939 24.816,-36.222c2.546,-3.679 4.353,-6.973 5.148,-9.503c1.413,-4.499 0.593,-8.772 -2.186,-13.197c-2.009,-2.948 -4.523,-2.811 -6.917,-1.092c-20.987,15.184 -54.628,45.081 -64.808,57.328c-2.237,2.695 -3.911,5.567 -4.75,8.238c-0.972,3.092 -0.739,5.791 0.322,7.823c1.253,2.402 3.494,2.643 4.956,0.94c13.067,-15.047 31.938,-31.359 48.203,-44.783c-9.638,13.961 -18.705,28.565 -21.676,34.582c-0.856,1.739 -1.482,3.242 -1.968,4.788Z" style="fill:#00718f;fill-rule:nonzero;"/><path d="M180.096,159.506c3.389,-3.414 4.107,-7.667 3.942,-9.109c-0.285,-3.024 -2.807,-3.353 -4.964,-1.405c-7.843,7.266 -18.059,14.714 -22.698,13.256c-1.828,-0.574 -2.23,-2.245 -1.435,-4.775c1.723,-5.482 10.208,-13.319 16.361,-18.645c7.481,-6.608 12.376,-11.866 13.878,-16.645c0.971,-3.093 0.975,-5.563 0.188,-7.973c-0.936,-2.92 -3.362,-3.064 -6.169,-1.011c-7.093,4.876 -13.751,13.287 -26.284,24.177c-10.703,8.993 -21.156,16.212 -24.811,15.064c-3.093,-0.972 -1.037,-6.041 3.26,-10.869c8.321,-9.278 23.705,-22.361 25.516,-28.125c0.663,-2.108 0.851,-4.675 -0.077,-7.129c-1.024,-2.638 -3.466,-3.714 -6.045,-1.899c-12.558,9.492 -24.143,21.297 -30.018,29.182c-2.325,2.976 -3.903,6.033 -4.875,9.126c-1.899,6.044 -0.766,12.27 6.404,14.522c7.169,2.252 14.864,-0.118 21.322,-3.959c-1.425,6.503 1.511,11.904 9.805,14.51c8.716,2.738 20.106,-1.561 26.7,-8.293Z" style="fill:#00718f;fill-rule:nonzero;"/><path d="M189.306,171.512c-3.093,-0.971 -4.499,-6.819 -4.111,-13.956c6.117,-4.72 11.952,-9.528 17.004,-13.81c-0.911,3.884 -2.184,8.427 -3.597,12.925c-2.871,9.138 -6.344,15.769 -9.296,14.841Zm-15.019,-19.545c-1.016,3.233 -1.233,6.872 -0.525,10.029c1.997,10.357 9.725,15.256 18.248,17.625c10.675,2.891 22.194,0.64 30.627,-7.522c3.899,-3.563 4.714,-7.631 4.453,-9.258c-0.278,-2.558 -2.077,-4.205 -4.358,-1.369c-4.694,6.093 -10.088,9.496 -17.088,11.621c2.518,-2.607 4.457,-6.322 5.702,-9.792c2.666,-7.503 3.709,-17.215 6.845,-27.195c0.574,-1.828 1.465,-4.173 2.136,-5.816c6.61,-5.8 6.738,-9.158 2.943,-10.351c-2.109,-0.662 -4.949,-0.473 -7.816,0.789c-4.072,1.655 -6.775,4.358 -8.927,9.242c-5.554,4.897 -12.771,10.661 -19.485,15.81c0.638,-3.506 -1.25,-4.871 -4.812,-3.365c-3.932,1.7 -6.619,5.335 -7.943,9.552Z" style="fill:#00718f;fill-rule:nonzero;"/><path d="M255.211,128.893c-1.369,4.358 1.101,9.768 5.6,11.181c3.514,1.104 6.639,-1.467 7.831,-5.262c1.281,-4.077 -0.925,-10.33 -4.861,-11.567c-3.233,-1.016 -7.334,1.712 -8.57,5.648Zm-5.099,52.61c2.976,-3.081 4.22,-6.551 3.706,-9.338c-0.47,-2.928 -2.209,-3.783 -4.129,-1.606c-7.361,8.19 -17.63,15.312 -23.253,13.545c-1.546,-0.486 -1.711,-1.927 -1.004,-4.177c0.706,-2.249 2.337,-4.98 4.618,-7.816c4.156,-4.872 13.935,-13.384 18.505,-18.589c5.863,-5.881 6.637,-12.279 4.849,-15.929c-1.165,-2.683 -2.94,-2.932 -5.932,-0.783c-7.497,5.676 -21.617,19.156 -28.223,27.892c-2.273,3.302 -3.763,6.077 -4.602,8.748c-2.208,7.029 0.042,13.142 8.617,15.836c8.294,2.605 19.849,-0.252 26.848,-7.783Z" style="fill:#00718f;fill-rule:nonzero;"/><path d="M289.772,146.701c-8.154,-2.562 -21.644,1.541 -33.362,13.767c-4.719,4.696 -7.891,9.877 -9.481,14.938c-3.533,11.246 1.031,21.792 14.008,25.715c11.009,3.304 24.559,-0.007 32.551,-6.763c3.767,-3.141 4.915,-6.796 4.786,-8.845c-0.092,-2.654 -2.378,-2.755 -4.305,-1.043c-8.273,6.668 -21.373,14.445 -31.872,10.992c-3.752,-1.333 -5.089,-5.924 -3.146,-12.109c1.325,-4.217 4.541,-9.539 9.163,-14.42c9.2,-9.62 21.208,-15.886 22.454,-13.951c0.385,0.739 -1.394,2.961 -3.683,5.33c-4.341,4.969 -5.927,7.56 -6.501,9.387c-1.192,3.796 0.358,7.217 2.403,9.559c2.37,2.289 3.723,2.405 5.546,0.043c1.048,-1.369 2.554,-3.213 4.341,-4.968c4.394,-4.644 8.277,-9.138 7.626,-14.44c-0.925,-4.924 -5.327,-11.558 -10.528,-13.192Z" style="fill:#00718f;fill-rule:nonzero;"/><path d="M70.142,217.486c7.087,16.282 18.912,26.329 29.174,29.553c8.434,2.65 16.25,1.862 21.23,-1.207c5.024,-3.21 8,-6.291 9.015,-9.524c0.839,-2.671 0.088,-5.687 -1.965,-8.494c-4.245,-5.659 -20.987,-19.722 -17.65,-28.867c5.781,-15.946 43.059,-26.938 47.068,-21.509c1.526,2.024 -4.212,7.017 -9.361,11.114c-6.582,4.728 -10.088,9.496 -11.059,12.589c-1.016,3.233 -0.361,6.064 0.989,8.651c1.787,3.65 3.687,3.011 5.659,1.16c3.028,-2.756 9.401,-8.785 14.188,-12.224c3.08,-2.43 8.361,-6.949 8.766,-13.154c0.208,-4.105 -0.864,-9.539 -3.652,-14.43c-1.772,-2.719 -4.274,-4.586 -7.648,-5.646c-3.233,-1.016 -6.318,-1.522 -11.575,-1.011c-14.33,1.367 -41.515,11.206 -47.521,30.324c-4.505,14.339 12.65,28.069 20.298,39.121c1.149,1.751 1.057,4.502 -1.714,5.948c-2.032,1.061 -5.064,0.88 -8.157,-0.091c-8.153,-2.562 -15.223,-12.505 -19.292,-18.726c-2.202,-3.317 -5.784,-5.678 -9.861,-6.959c-1.687,-0.53 -3.277,-0.875 -4.49,-0.948c-2.189,0.085 -3.659,1.322 -2.442,4.33Z" style="fill:#00718f;fill-rule:nonzero;"/><path d="M194.28,259.42c3.433,-3.555 3.465,-7.097 3.292,-9.005c-0.374,-2.743 -2.711,-3.168 -4.358,-1.369c-6.911,7.25 -17.497,14.89 -22.417,13.345c-1.968,-0.619 -2.097,-2.667 -1.169,-5.619c0.706,-2.249 2.196,-5.024 4.433,-7.72c2.606,-2.888 7.975,-7.688 20.035,-19.035c1.743,-1.615 2.783,-3.45 3.401,-5.418c1.722,-5.483 -0.985,-11.121 -5.062,-12.402c-2.671,-0.839 -8.121,-0.698 -13.31,1.07c2.024,-1.527 14.847,-11.862 19.116,-15.618c5.229,-4.844 8.55,-9.515 9.742,-13.311c0.618,-1.968 0.771,-3.928 0.554,-5.695c-0.382,-3.209 -2.314,-4.434 -5.447,-2.329c-15.979,11.043 -58.608,49.391 -68.868,62.385c-6.429,8.174 -5.521,12.166 -4.111,15.543c1.025,2.639 3.266,2.88 5.185,0.703c6.024,-7.375 14.132,-15.485 21.384,-21.855c11.249,-9.749 27.386,-14.41 28.651,-14.012c0.984,0.309 -2.184,3.02 -6.313,6.82c-7.947,6.616 -18.678,16.682 -21.46,25.538c-2.296,7.31 0.463,13.274 9.741,16.188c8.997,2.827 20.343,-1.331 26.981,-8.204Z" style="fill:#00718f;fill-rule:nonzero;"/><path d="M252.943,278.159c1.148,-3.655 3.457,-7.563 6.328,-11.295l7.438,-6.467c9.409,-8.319 17.975,-11.497 20.646,-10.658c0.984,0.31 0.647,2.366 -0.148,4.896c-1.501,4.78 -5.493,11.094 -10.846,16.826c-8.558,9.049 -18.087,15.786 -22.068,14.69c-2.249,-0.707 -2.631,-3.916 -1.35,-7.992Zm-20.021,-31.156c-0.972,-2.314 -0.527,-6.189 0.268,-8.72c0.707,-2.249 2.325,-2.976 3.169,-2.711c0.984,0.309 1.844,1.506 1.181,3.614c-0.574,1.828 -2.196,5.025 -4.618,7.817Zm-32.381,16.546c3.445,-10.965 14.219,-21.171 23.404,-26.317c0.028,4.334 2.499,9.743 5.684,13.37c-2.413,3.257 -5.433,6.478 -8.593,9.656c-7.562,7.354 -15.048,11.026 -18.844,9.834c-2.249,-0.707 -2.888,-2.607 -1.651,-6.543Zm101.855,20.416c0.321,-2.989 -2.41,-4.619 -4.743,-2.108c-6.084,6.583 -18.558,12.858 -29.105,12.016c5.137,-2.093 11.843,-7.709 17.293,-13.256c5.124,-5.495 9.854,-12.195 11.753,-18.239c1.325,-4.218 1.393,-8.367 -0.588,-12.387c-1.313,-3.192 -3.912,-5.244 -6.864,-6.172c-4.217,-1.325 -8.772,-0.593 -13.169,1.114c0.16,-1.494 0.18,-3.032 0.112,-4.289c-0.294,-3.49 -2.648,-4.848 -5.772,-2.277c-9.927,8.002 -20.433,14.895 -28.325,13.96c3.943,-9.109 1.468,-12.049 -1.448,-18.989c-1.523,-4.494 -3.612,-6.695 -7.688,-7.975c-9.419,-2.959 -20.387,1.472 -30.202,10.59c-5.871,5.415 -10.144,11.64 -12.131,17.966c-1.369,4.358 -1.569,8.929 -0.002,13.282c2.442,6.482 6.788,9.855 11.427,11.313c13.074,4.107 29.398,-8.526 37.426,-21.295c3.048,1.112 5.711,1.486 8.595,1.156c-15.036,14.428 -32.063,32.246 -37.11,39.464c-2.133,3.346 -3.667,6.262 -4.417,8.652c-0.928,2.952 -0.606,5.369 -0.108,7.225c0.944,3.386 3.133,3.301 5.097,0.983c10.284,-11.596 21.589,-23.489 32.267,-33.881c1.515,9.434 9.488,15.028 20.875,18.605c10.402,3.268 23.459,1.038 31.812,-6.377c3.441,-3.089 4.65,-5.953 5.015,-9.081Z" style="fill:#00718f;fill-rule:nonzero;"/></g></g></svg>